<svg width="140" height="27" viewBox="0 0 140 27" fill="none" xmlns="http://www.w3.org/2000/svg">
<g id="Layer_1" clip-path="url(#clip0_807_12440)">
<path id="Vector" d="M12.5397 0.979492C11.5139 0.979492 10.5183 1.10658 9.56512 1.33958H15.5172C14.564 1.10658 13.5685 0.979492 12.5427 0.979492H12.5397ZM17.6959 2.74061H6.1609C5.79173 2.96151 5.42861 3.19148 5.08667 3.44869H18.3374C18.1317 3.20056 17.9168 2.96454 17.6959 2.74061ZM19.3179 4.84972H3.50106C3.14097 5.22494 2.80206 5.62437 2.49038 6.04196H19.8595C19.7173 5.6274 19.5327 5.23099 19.3179 4.84972ZM21.1062 7.99069C21.1062 8.35683 21.0729 8.73205 21.0094 9.11635H24.2744C24.0565 8.53839 23.7963 7.97858 23.4967 7.44299H21.0729C21.0881 7.62152 21.1002 7.8061 21.1002 7.99069H21.1062ZM19.7324 12.3542H25.0249C24.9613 11.7278 24.8584 11.1135 24.7102 10.5174H20.6311C20.3891 11.168 20.0834 11.7762 19.7294 12.3542H19.7324ZM11.2385 9.93942C11.8467 9.93942 12.3732 9.60656 12.6607 9.11333H20.0774C20.15 8.726 20.1893 8.35078 20.1893 7.98766C20.1893 7.80308 20.1772 7.62152 20.1621 7.43996H12.6516C12.3642 6.95883 11.8437 6.63505 11.2415 6.63505C10.6393 6.63505 10.1189 6.95883 9.83141 7.43996H1.57956C1.28302 7.97556 1.02278 8.53234 0.801885 9.11333H9.81628C10.1037 9.60353 10.6272 9.93942 11.2385 9.93942ZM19.9926 3.44567C19.6719 3.20661 19.336 2.99177 18.9941 2.786C19.1726 2.99782 19.3451 3.21872 19.5115 3.44567H19.9926ZM22.5889 6.03893C22.2773 5.62135 21.9384 5.22192 21.5783 4.84669H20.3467C20.5313 5.22797 20.6886 5.62437 20.8127 6.03893H22.592H22.5889ZM12.0313 24.5246C11.8255 25.1238 11.6712 25.6352 11.5592 26.0346C11.883 26.0588 12.2098 26.077 12.5397 26.077C16.5249 26.077 20.0653 24.213 22.362 21.3171H13.3597C12.7908 22.4761 12.352 23.5957 12.0313 24.5246ZM14.4158 19.3986C14.3099 19.5711 14.21 19.7436 14.1101 19.9161H23.3303C23.7903 19.1414 24.1746 18.3123 24.462 17.4408H15.7865C15.3115 18.0551 14.8485 18.6996 14.4188 19.3986H14.4158ZM19.6507 10.5144H0.36917C0.220897 11.1105 0.118013 11.7247 0.0544676 12.3511H18.6491C19.0455 11.758 19.3875 11.1528 19.6507 10.5144ZM18.7762 13.7522C18.1982 14.5177 17.5628 15.2651 16.9152 16.0368H24.8372C24.9885 15.2984 25.0642 14.5329 25.0763 13.7522H18.7732H18.7762ZM17.6112 13.7522H0C0.0151299 14.5329 0.0907794 15.2984 0.242078 16.0368H15.729C16.3796 15.2349 17.0242 14.4875 17.6112 13.7522ZM2.72036 21.3171C4.64488 23.7439 7.44089 25.4385 10.6393 25.9287C10.9056 24.9604 11.4473 23.2265 12.346 21.3171H2.71733H2.72036ZM13.6381 18.9145C13.9619 18.394 14.3008 17.9068 14.6427 17.4408H0.620326C0.907794 18.3123 1.28907 19.1414 1.75204 19.9161H13.0601C13.2447 19.5832 13.4323 19.2473 13.6381 18.9175V18.9145Z" fill="#005596"/>
<path id="Vector_2" d="M135.764 7.85767H137.476V8.11185H136.759V9.9698H136.478V8.11185H135.764V7.85767Z" fill="#005596"/>
<g id="Group">
<path id="Vector_3" d="M139.725 9.9698V8.7231C139.725 8.66258 139.731 8.39326 139.731 8.19658H139.725L139.128 9.97283H138.847L138.251 8.1996H138.245C138.245 8.39326 138.251 8.66258 138.251 8.7231V9.9698H137.976V7.85767H138.384L138.989 9.64299H138.995L139.598 7.85767H140.003V9.9698H139.728H139.725Z" fill="#005596"/>
<path id="Vector_4" d="M66.5504 18.1549C67.5672 13.1287 64.9194 8.95288 60.093 8.95288C54.616 8.95288 50.6126 12.581 49.4839 17.6223C48.3582 22.6515 51.7897 26.5459 58.0414 26.5459C59.7692 26.5459 62.5925 25.8379 64.6743 23.9436L65.4702 21.7104C65.4702 21.7104 62.7074 23.6955 59.3547 23.7378C55.0608 23.7923 52.8881 22.0312 53.8111 18.1579H66.5535L66.5504 18.1549ZM54.5918 15.4133C55.8173 13.0773 57.3696 12.0152 59.5271 11.9789C61.3246 11.9486 63.0494 13.1893 62.7438 15.4133H54.5918Z" fill="#005596"/>
<path id="Vector_5" d="M136.52 18.1549C137.537 13.1287 134.889 8.95288 130.063 8.95288C124.586 8.95288 120.582 12.581 119.457 17.6223C118.331 22.6515 121.762 26.5459 128.014 26.5459C129.742 26.5459 132.565 25.8379 134.647 23.9436L135.443 21.7104C135.443 21.7104 132.68 23.6955 129.327 23.7378C125.034 23.7923 122.861 22.0312 123.784 18.1579H136.526L136.52 18.1549ZM124.558 15.4133C125.784 13.0773 127.336 12.0152 129.494 11.9789C131.291 11.9486 133.016 13.1893 132.714 15.4133H124.558Z" fill="#005596"/>
<path id="Vector_6" d="M35.6067 10.9925L37.504 2.99481L37.4526 3.1219C41.4408 2.86772 43.8041 4.07811 43.09 6.977C42.046 11.2225 35.6037 10.9925 35.6037 10.9925M28.2052 20.842C27.7846 22.6334 27.364 25.4778 25.1217 26.2192L25.0945 26.3342H31.9211C35.0227 26.3342 38.2605 26.4522 41.465 25.1268C44.5304 23.8801 47.3264 21.308 48.0314 18.3093C48.9271 14.4905 46.4579 12.1484 42.9115 11.4101C45.4987 10.4357 47.6229 8.95297 48.2372 6.34457C49.0512 2.8768 46.3792 0.695068 40.9234 0.695068H31.1192L31.092 0.813082C33.0286 1.55445 32.0694 4.39887 31.6578 6.15091L28.2052 20.8451V20.842ZM32.6776 23.4081L35.0409 13.4465C41.0353 13.1561 43.7557 14.8809 42.8691 18.6543C41.6042 24.0405 32.6776 23.4081 32.6776 23.4081Z" fill="#005596"/>
<path id="Vector_7" d="M73.2318 1.85712C74.539 1.69976 75.3651 1.50913 75.9733 1.17627H76.0853L71.386 22.1191C71.0047 23.8257 70.4358 25.1995 71.8762 26.1255L71.8519 26.2374H64.8619L64.8861 26.1255C66.7048 25.1965 66.7895 23.8257 67.1708 22.1191L70.7898 5.94219C71.1711 4.23554 71.7037 3.06448 70.2996 2.13853L70.3238 2.02657C70.3238 2.02657 71.8247 2.0296 73.2318 1.86014" fill="#005596"/>
<path id="Vector_8" d="M79.4744 18.9176C79.19 20.1916 78.0038 24.0194 80.703 23.6866C81.1417 23.6321 81.5775 23.617 82.2825 23.0844L81.6017 24.9272C80.6818 26.1649 78.8208 26.5915 78.4093 26.5915C73.1713 26.5915 74.8749 20.6545 75.1957 19.2112L76.8267 12.0396H75.0202L75.6556 9.72471C78.8601 9.29502 79.8557 6.83489 80.4215 4.30518H82.7395L81.8438 9.01057L84.8304 8.99545L84.0618 12.0275L81.0419 12.0396L79.4774 18.9146L79.4744 18.9176Z" fill="#005596"/>
<path id="Vector_9" d="M89.9987 26.4946C94.8705 26.4946 99.7968 22.7091 100.892 17.4954C101.41 15.0322 100.844 12.6447 99.4307 11.0107C98.0992 9.47653 96.326 8.8562 94.117 8.8562C89.1393 8.8562 84.2342 12.3875 83.0934 17.8192C82.0131 22.9603 85.263 26.4946 89.9987 26.4946ZM90.3921 23.3749C87.2178 23.1782 86.8244 19.8889 87.6687 16.9325C88.4948 14.0427 90.6251 11.7944 93.5179 11.9911C96.8465 12.2181 97.1763 15.3832 96.2836 18.503C95.4757 21.3293 93.5875 23.5715 90.389 23.3749" fill="#005596"/>
<path id="Vector_10" d="M118.352 16.7752C118.737 15.0655 119.351 12.8111 118.652 11.3556C117.862 9.65807 115.698 8.85618 113.638 8.85618C111.728 8.85618 109.607 9.28284 108.179 10.6143L108.63 8.59595H108.518C107.91 8.92881 107.083 9.11944 105.779 9.27679C104.375 9.44625 102.871 9.44322 102.871 9.44322L102.847 9.55518C103.162 9.76398 103.377 9.98487 103.522 10.2209C103.93 11.05 103.558 12.1333 103.292 13.3558L101.355 22.0101C100.98 23.6835 100.898 25.03 99.0797 25.9378L99.0555 26.0468H105.997L106.021 25.9378C104.608 25.03 105.12 23.7198 105.492 22.0464L106.932 15.6102C107.368 13.6645 108.711 12.0425 111.399 12.0425C114.086 12.0425 114.83 13.9761 114.122 17.1383L113.023 22.0464C112.657 23.6835 112.576 25.03 110.754 25.9378L110.73 26.0468H117.671L117.696 25.9378C116.282 25.03 116.794 23.7198 117.169 22.0464L118.349 16.7752H118.352Z" fill="#005596"/>
</g>
</g>
<defs>
<clipPath id="clip0_807_12440">
<rect width="140" height="25.8994" fill="white" transform="translate(0 0.692139)"/>
</clipPath>
</defs>
</svg>
