<svg width="70" height="70" viewBox="0 0 70 70" fill="none" xmlns="http://www.w3.org/2000/svg">
<g id="Group">
<g id="Group_2">
<path id="Vector" d="M60.521 29.6039C60.521 25.5935 58.9606 21.8164 56.1314 18.9872C53.2877 16.1581 49.5252 14.5977 45.5148 14.5977C41.5481 14.5977 37.8294 16.1143 35.0148 18.8852H35.0002L34.9127 18.9727C34.9127 18.9872 34.8981 18.9872 34.8981 18.9872L34.4606 19.4247C28.8898 13.9268 19.8919 13.956 14.3502 19.4977C8.76478 25.0831 8.76478 34.1247 14.3502 39.6956L17.0627 42.4081C16.8294 42.9185 16.6981 43.4727 16.6981 44.056C16.6981 45.0768 17.0919 46.0393 17.8064 46.7685C18.5356 47.4831 19.4981 47.8914 20.5189 47.8914C20.7377 47.8914 20.9419 47.8622 21.1314 47.8185C20.9419 48.9997 21.2919 50.2539 22.196 51.1581C22.9252 51.8727 23.8877 52.281 24.9085 52.281C25.1273 52.281 25.3314 52.2518 25.521 52.2081C25.3314 53.3893 25.6814 54.6435 26.5856 55.5477C27.3439 56.2914 28.321 56.6706 29.2981 56.6706C29.5023 56.6706 29.721 56.6414 29.9252 56.6122C29.8814 56.8164 29.8669 57.0206 29.8669 57.2247C29.8669 58.2456 30.2606 59.2081 30.9752 59.9372C31.7189 60.681 32.7106 61.0602 33.6877 61.0602C34.6648 61.0602 35.6564 60.681 36.4002 59.9372L39.4919 56.831C39.9877 56.3352 40.3377 55.7372 40.4981 55.0664C41.6939 55.3872 43.021 55.081 43.9544 54.1477C45.3398 52.7622 45.3398 50.4872 43.9544 49.1018C45.3398 50.4872 47.6148 50.4872 49.0002 49.1018C50.3856 47.7164 50.3856 45.4414 49.0002 44.056C50.3856 45.4414 52.6606 45.4414 54.046 44.056C54.746 43.3706 55.0814 42.4518 55.0814 41.5331C55.0814 41.4456 55.0814 41.3581 55.0669 41.2706L56.1314 40.206C58.9606 37.3768 60.521 33.5997 60.521 29.6039ZM21.0002 46.3456C20.2419 46.506 19.4106 46.3018 18.8419 45.7331C18.3898 45.2956 18.1564 44.6977 18.1564 44.056C18.1564 43.881 18.171 43.7206 18.2148 43.5602C18.3023 43.1081 18.5064 42.6997 18.8419 42.3789L21.9335 39.2727C22.4002 38.8206 23.0127 38.5872 23.6106 38.5872C24.2231 38.5872 24.8356 38.8206 25.3023 39.2727C26.221 40.206 26.221 41.7081 25.3023 42.6414L22.196 45.7331C21.8752 46.0539 21.4523 46.2581 21.0002 46.3456ZM23.2314 50.1227C22.5023 49.4081 22.3419 48.3143 22.7648 47.4247C22.8814 47.1914 23.0273 46.9581 23.2314 46.7685L26.3231 43.6768C26.7898 43.2102 27.4023 42.9768 28.0002 42.9768C28.6127 42.9768 29.2252 43.2102 29.6919 43.6768C30.2169 44.2018 30.4356 44.9164 30.3481 45.6018C30.3189 46.1122 30.1002 46.6227 29.6919 47.031L26.5856 50.1227C25.696 51.0122 24.121 51.0122 23.2314 50.1227ZM27.621 54.5122C26.7023 53.5935 26.7023 52.0768 27.621 51.1581L30.7127 48.0664C31.0919 47.6727 31.6314 47.4539 32.171 47.4247C32.8564 47.3372 33.571 47.556 34.0814 48.0664C34.5189 48.5039 34.7669 49.1018 34.7669 49.7435C34.7669 49.831 34.7669 49.9039 34.7377 49.9914C34.6939 50.531 34.4606 51.0268 34.0814 51.4206L30.9752 54.5122C30.0564 55.4456 28.5398 55.4456 27.621 54.5122ZM39.1419 54.3664C39.0981 54.906 38.8502 55.4164 38.471 55.8102L35.3648 58.9018C34.446 59.8352 32.9294 59.8352 32.0106 58.9018C31.5585 58.4643 31.3252 57.8664 31.3252 57.2247C31.3252 56.5831 31.5585 55.9852 32.0106 55.5477L35.1023 52.4414C35.5106 52.0477 36.021 51.8289 36.5314 51.7852C36.6189 51.756 36.6919 51.756 36.7794 51.756C37.3919 51.756 38.0044 51.9893 38.471 52.4414C38.9085 52.8935 39.1564 53.4914 39.1564 54.1331C39.1564 54.206 39.1564 54.2935 39.1419 54.3664ZM54.5856 39.6956C54.4398 39.4477 54.2648 39.2143 54.046 39.0102L39.0689 24.0331L32.2731 30.8435C30.1877 32.9143 26.9064 33.0893 24.6314 31.3247L35.496 20.4602L35.9335 20.0081C38.5002 17.456 41.8981 16.056 45.5148 16.056C49.1314 16.056 52.5294 17.456 55.096 20.0227C60.3752 25.3018 60.3752 33.8914 55.096 39.1852L54.5856 39.6956Z" fill="#002677"/>
</g>
</g>
</svg>
