<svg width="141" height="53" viewBox="0 0 141 53" fill="none" xmlns="http://www.w3.org/2000/svg">
<g id="Oticon" clip-path="url(#clip0_1040_4318)">
<path id="Vector" d="M49.5883 6.5124H56.3184V0L49.5883 1.17154V6.5124Z" fill="#C6168D"/>
<path id="Vector_2" d="M74.0815 9.61844C71.8767 9.61581 69.7055 10.1527 67.7612 11.1814C65.8169 12.2101 64.1598 13.6987 62.9375 15.5145C61.7152 17.3303 60.9656 19.417 60.7554 21.5889C60.5453 23.7608 60.8812 25.9504 61.7331 27.9627C62.585 29.9751 63.9266 31.7477 65.6384 33.1228C67.3501 34.4979 69.3789 35.4327 71.5441 35.8442C73.7093 36.2556 75.9438 36.1307 78.0484 35.4808C80.1531 34.8308 82.0627 33.676 83.6072 32.119L79.2298 27.7921C78.235 28.8097 76.9558 29.5102 75.5561 29.8036C74.1564 30.0971 72.7 29.9702 71.3737 29.4392C70.0473 28.9083 68.9114 27.9974 68.1116 26.8234C67.3118 25.6495 66.8845 24.2658 66.8845 22.85C66.8845 21.4341 67.3118 20.0505 68.1116 18.8765C68.9114 17.7025 70.0473 16.7917 71.3737 16.2607C72.7 15.7297 74.1564 15.6029 75.5561 15.8963C76.9558 16.1898 78.235 16.8902 79.2298 17.9078L83.6072 13.581C82.3682 12.3233 80.8866 11.3245 79.2504 10.6438C77.6141 9.96317 75.8564 9.61448 74.0815 9.61844Z" fill="#231F20"/>
<path id="Vector_3" d="M13.3708 9.61841C10.7263 9.61841 8.14119 10.3944 5.94238 11.8483C3.74356 13.3022 2.0298 15.3687 1.0178 17.7865C0.00579338 20.2042 -0.258993 22.8646 0.256922 25.4313C0.772836 27.998 2.04628 30.3556 3.91622 32.2061C5.78615 34.0565 8.1686 35.3167 10.7623 35.8272C13.3559 36.3378 16.0444 36.0758 18.4876 35.0743C20.9307 34.0728 23.019 32.3769 24.4882 30.201C25.9574 28.0251 26.7416 25.4669 26.7416 22.8499C26.7376 19.3419 25.3276 15.9787 22.821 13.4982C20.3143 11.0176 16.9157 9.62232 13.3708 9.61841ZM13.3708 29.9629C11.9492 29.9629 10.5595 29.5457 9.37746 28.7641C8.19544 27.9826 7.27416 26.8717 6.73013 25.572C6.18611 24.2722 6.04376 22.8421 6.32111 21.4623C6.59845 20.0825 7.28302 18.8151 8.28825 17.8203C9.29348 16.8256 10.5742 16.1481 11.9685 15.8737C13.3628 15.5992 14.808 15.7401 16.1214 16.2785C17.4348 16.8168 18.5574 17.7285 19.3472 18.8982C20.137 20.0679 20.5586 21.4431 20.5586 22.8499C20.5573 24.736 19.7995 26.5445 18.4519 27.8781C17.1042 29.2118 15.2767 29.9616 13.3708 29.9629Z" fill="#231F20"/>
<path id="Vector_4" d="M31.0194 4.43009V26.3842C31.0194 35.1462 38.5803 36.0962 41.8334 36.0962C42.4997 36.0987 43.1651 36.0476 43.8231 35.9436L43.9723 35.9141V30.1794H42.6343C38.2221 30.1794 37.7496 26.97 37.7496 25.5917V16.239H43.9674V10.5192H37.7496V3.25854L31.0194 4.43009Z" fill="#231F20"/>
<path id="Vector_5" d="M98.704 9.61841C96.0595 9.61841 93.4744 10.3944 91.2756 11.8483C89.0768 13.3022 87.3631 15.3687 86.351 17.7865C85.339 20.2042 85.0743 22.8646 85.5902 25.4313C86.1061 27.998 87.3795 30.3556 89.2495 32.2061C91.1194 34.0565 93.5019 35.3167 96.0955 35.8272C98.6892 36.3378 101.378 36.0758 103.821 35.0743C106.264 34.0728 108.352 32.3769 109.821 30.201C111.291 28.0251 112.075 25.4669 112.075 22.8499C112.071 19.3419 110.661 15.9787 108.154 13.4982C105.648 11.0176 102.249 9.62232 98.704 9.61841ZM98.704 29.9629C97.2822 29.9639 95.892 29.5475 94.7094 28.7665C93.5267 27.9855 92.6046 26.875 92.0598 25.5754C91.5151 24.2757 91.372 22.8454 91.6488 21.4653C91.9256 20.0852 92.6097 18.8173 93.6148 17.8221C94.6198 16.8268 95.9005 16.1489 97.295 15.874C98.6894 15.5992 100.135 15.7398 101.449 16.278C102.762 16.8162 103.885 17.7279 104.675 18.8977C105.465 20.0675 105.887 21.4429 105.887 22.8499C105.886 24.7352 105.129 26.5429 103.782 27.8764C102.435 29.2099 100.609 29.9603 98.704 29.9629Z" fill="#231F20"/>
<path id="Vector_6" d="M49.5883 35.8059H56.3184V10.5193H49.5883V35.8059Z" fill="#231F20"/>
<path id="Vector_7" d="M134.275 35.8059H141.005V19.1877C141.002 16.8904 140.079 14.6878 138.438 13.0628C136.797 11.4379 134.572 10.5232 132.25 10.5193H116.422V35.8059H123.152V16.2392H130.554C131.54 16.2405 132.486 16.6288 133.184 17.319C133.881 18.0093 134.273 18.945 134.275 19.9212V35.8059Z" fill="#231F20"/>
<path id="Vector_8" d="M1.94995 43.0369H2.82044V51.1835H1.94995V43.0369Z" fill="#231F20"/>
<path id="Vector_9" d="M4.85986 43.2043H5.85471V44.1544H4.85986V43.2043ZM4.91458 45.4145H5.78507V51.1836H4.91458V45.4145Z" fill="#231F20"/>
<path id="Vector_10" d="M8.12791 46.1725H7.33203V45.4242H8.12791V44.932C8.08973 44.394 8.2686 43.863 8.62534 43.4553C8.79349 43.3034 8.99043 43.186 9.20475 43.11C9.41906 43.0339 9.64649 43.0007 9.87387 43.0122C10.2 43.0018 10.5253 43.0502 10.8339 43.155V43.8934C10.5606 43.805 10.2757 43.7569 9.98828 43.7506C9.31178 43.7506 8.99343 44.1493 8.99343 44.9763V45.4439H10.8389V46.1823H8.9984V51.1934H8.12791V46.1725Z" fill="#231F20"/>
<path id="Vector_11" d="M11.4656 48.3236C11.4449 47.9435 11.5014 47.5631 11.6319 47.205C11.7624 46.8469 11.9642 46.5183 12.2254 46.2388C12.4865 45.9592 12.8017 45.7344 13.1522 45.5776C13.5028 45.4208 13.8815 45.3352 14.2661 45.3258C16.0021 45.2914 16.997 46.65 16.997 48.3236C17.0021 48.4154 17.0021 48.5074 16.997 48.5993H12.3709C12.384 49.1285 12.6066 49.6315 12.9909 49.9998C13.3752 50.3681 13.8903 50.5723 14.4253 50.5682C14.7727 50.5715 15.1168 50.5001 15.4337 50.359C15.7506 50.218 16.0327 50.0106 16.2608 49.7511L16.803 50.2434C16.5115 50.5921 16.1438 50.8709 15.7276 51.0585C15.3114 51.2461 14.8576 51.3376 14.4004 51.3263C14.0051 51.3314 13.6129 51.2565 13.2479 51.1061C12.8829 50.9558 12.5528 50.7331 12.278 50.4519C12.0031 50.1707 11.7893 49.8368 11.6496 49.4708C11.5099 49.1048 11.4473 48.7144 11.4656 48.3236ZM16.1016 47.9889C16.0121 46.9404 15.4002 46.0199 14.2412 46.0199C13.2464 46.0199 12.4605 46.8567 12.3461 47.9889H16.1016Z" fill="#231F20"/>
<path id="Vector_12" d="M18.2654 47.3787H21.3992V48.2795H18.2654V47.3787Z" fill="#231F20"/>
<path id="Vector_13" d="M22.7423 48.3238C22.7456 47.7138 22.9363 47.1192 23.289 46.6189C23.6418 46.1186 24.1399 45.7363 24.7173 45.5227C25.2947 45.3091 25.9241 45.2743 26.522 45.4229C27.1198 45.5715 27.6579 45.8965 28.0648 46.3548L27.4877 46.9602C27.2756 46.6962 27.0076 46.4813 26.7025 46.3308C26.3974 46.1802 26.0627 46.0977 25.7219 46.089C25.436 46.0972 25.1545 46.1616 24.8941 46.2786C24.6336 46.3956 24.3993 46.5628 24.2048 46.7704C24.0103 46.9779 23.8595 47.2218 23.7613 47.4876C23.6631 47.7535 23.6194 48.0361 23.6327 48.3188C23.6207 48.6062 23.6671 48.8931 23.7691 49.1624C23.8711 49.4318 24.0266 49.6781 24.2265 49.8869C24.4264 50.0958 24.6665 50.2628 24.9328 50.3781C25.199 50.4935 25.486 50.5549 25.7766 50.5586C26.118 50.5498 26.4536 50.4689 26.7607 50.3211C27.0679 50.1734 27.3395 49.9623 27.5574 49.7021L28.1095 50.1943C27.7188 50.677 27.1862 51.0277 26.5853 51.1977C25.9843 51.3677 25.3449 51.3486 24.7554 51.1432C24.1659 50.9377 23.6555 50.556 23.2948 50.0509C22.9342 49.5458 22.7411 48.9422 22.7423 48.3238Z" fill="#231F20"/>
<path id="Vector_14" d="M29.542 43.0369H30.4274V46.4186C30.6239 46.0692 30.9131 45.7796 31.2637 45.5809C31.6144 45.3822 32.0132 45.2821 32.4171 45.2913C33.8248 45.2913 34.6505 46.2266 34.6505 47.6V51.1835H33.7701V47.8313C33.7701 46.7582 33.1831 46.0888 32.1584 46.0888C31.9239 46.0871 31.6914 46.1329 31.4754 46.2234C31.2593 46.3139 31.0643 46.4471 30.9021 46.6149C30.74 46.7827 30.6143 46.9816 30.5326 47.1992C30.451 47.4169 30.4152 47.6487 30.4274 47.8806V51.1835H29.542V43.0369Z" fill="#231F20"/>
<path id="Vector_15" d="M36.0483 49.5099C36.0483 48.2941 37.0432 47.6443 38.5355 47.6443C39.1413 47.6402 39.7445 47.7231 40.3262 47.8904V47.6935C40.3262 46.6549 39.6845 46.1183 38.5902 46.1183C37.9751 46.1249 37.3696 46.2696 36.8193 46.5417L36.5607 45.8378C37.2196 45.5153 37.9446 45.3469 38.6797 45.3455C39.0209 45.3215 39.3635 45.3653 39.6872 45.4743C40.011 45.5834 40.3095 45.7555 40.565 45.9805C40.7735 46.2071 40.9338 46.473 41.0364 46.7622C41.1389 47.0514 41.1816 47.3581 41.1619 47.664V51.1934H40.3312V50.2926C40.084 50.6107 39.7637 50.866 39.3969 51.0372C39.0301 51.2084 38.6274 51.2906 38.2221 51.2771C37.1427 51.3066 36.0483 50.6913 36.0483 49.5099ZM40.3461 49.062V48.5057C39.7888 48.3433 39.2109 48.2604 38.63 48.2596C37.5356 48.2596 36.9288 48.7272 36.9288 49.4508C36.9288 50.1744 37.6053 50.5978 38.3912 50.5978C39.4656 50.6224 40.3461 49.9775 40.3461 49.062Z" fill="#231F20"/>
<path id="Vector_16" d="M43.0173 45.4145H43.8829V46.399C44.0785 46.0489 44.3675 45.7586 44.7183 45.5598C45.0692 45.3611 45.4684 45.2614 45.8726 45.2717C47.2852 45.2717 48.106 46.207 48.106 47.5803V51.1639H47.2454V47.8314C47.2454 46.7583 46.6585 46.0888 45.6338 46.0888C45.3958 46.0843 45.1594 46.1286 44.9395 46.2191C44.7197 46.3096 44.5213 46.4442 44.3567 46.6144C44.1921 46.7847 44.0651 46.9869 43.9835 47.2082C43.9019 47.4295 43.8677 47.6652 43.8829 47.9003V51.2033H43.0173V45.4145Z" fill="#231F20"/>
<path id="Vector_17" d="M49.8917 52.1877L50.2896 51.5182C50.9372 51.9971 51.7246 52.2545 52.533 52.2517C53.8163 52.2517 54.652 51.5478 54.652 50.199V49.5197C54.4004 49.8923 54.0601 50.198 53.6611 50.41C53.2622 50.622 52.8167 50.7338 52.3639 50.7356C52.0031 50.7415 51.6448 50.6758 51.3102 50.5422C50.9756 50.4086 50.6715 50.2099 50.4159 49.9579C50.1604 49.7059 49.9585 49.4057 49.8223 49.0751C49.6861 48.7445 49.6183 48.3901 49.6231 48.0331C49.617 47.6749 49.6837 47.319 49.8192 46.9867C49.9547 46.6544 50.1562 46.3524 50.4118 46.0985C50.6674 45.8447 50.9718 45.6442 51.3071 45.5089C51.6425 45.3737 52.0018 45.3064 52.3639 45.311C52.81 45.3062 53.2506 45.409 53.6476 45.6105C54.0445 45.8121 54.3859 46.1063 54.6421 46.4678V45.4341H55.5076V50.199C55.5286 50.5705 55.4739 50.9425 55.3465 51.2926C55.2192 51.6427 55.0219 51.9639 54.7664 52.2369C54.4658 52.5048 54.1146 52.711 53.7329 52.8437C53.3512 52.9764 52.9468 53.0328 52.5429 53.0097C51.5948 53.012 50.669 52.7249 49.8917 52.1877ZM54.6719 48.0233C54.6656 47.7539 54.6049 47.4886 54.4932 47.2428C54.3816 46.997 54.2214 46.7759 54.0221 46.5924C53.8227 46.4089 53.5883 46.2667 53.3325 46.1743C53.0768 46.0819 52.8049 46.0411 52.533 46.0543C52.2696 46.0422 52.0064 46.0836 51.7598 46.176C51.5132 46.2684 51.2883 46.4098 51.0991 46.5915C50.9098 46.7733 50.7603 46.9915 50.6595 47.2326C50.5588 47.4738 50.5091 47.7328 50.5134 47.9938V48.0184C50.5134 48.2794 50.5659 48.5379 50.6677 48.7787C50.7696 49.0196 50.9188 49.238 51.1067 49.4212C51.2947 49.6044 51.5175 49.7488 51.7624 49.846C52.0073 49.9432 52.2692 49.9913 52.533 49.9873C52.804 49.9985 53.0746 49.9565 53.3292 49.8637C53.5837 49.7708 53.8172 49.629 54.016 49.4464C54.2149 49.2638 54.3752 49.044 54.4878 48.7998C54.6004 48.5555 54.663 48.2916 54.6719 48.0233Z" fill="#231F20"/>
<path id="Vector_18" d="M57.4724 43.2043H58.4673V44.1544H57.4724V43.2043ZM57.5271 45.4145H58.3926V51.1836H57.5271V45.4145Z" fill="#231F20"/>
<path id="Vector_19" d="M60.4123 45.4145H61.2678V46.399C61.463 46.0486 61.7519 45.758 62.1029 45.5592C62.4538 45.3604 62.8533 45.2609 63.2575 45.2718C64.6652 45.2718 65.491 46.2071 65.491 47.5804V51.164H64.6205V47.8315C64.6205 46.7584 64.0335 46.0889 63.0088 46.0889C62.7732 46.0852 62.5393 46.1295 62.3218 46.2191C62.1042 46.3088 61.9076 46.4418 61.7443 46.6099C61.581 46.778 61.4544 46.9776 61.3724 47.1962C61.2904 47.4148 61.2548 47.6478 61.2678 47.8807V51.1837H60.3973L60.4123 45.4145Z" fill="#231F20"/>
<path id="Vector_20" d="M67.2916 52.1879L67.6845 51.5184C68.3328 51.996 69.1198 52.2533 69.9279 52.2519C71.2163 52.2519 72.047 51.548 72.047 50.1992V49.5199C71.7959 49.8931 71.4558 50.1992 71.0567 50.4113C70.6576 50.6234 70.2118 50.7348 69.7588 50.7358C69.3981 50.7417 69.0398 50.676 68.7052 50.5424C68.3706 50.4088 68.0665 50.2101 67.8109 49.9581C67.5553 49.7061 67.3534 49.4059 67.2172 49.0753C67.081 48.7447 67.0133 48.3904 67.018 48.0333C67.0127 47.6752 67.0798 47.3197 67.2156 46.9877C67.3513 46.6557 67.5528 46.354 67.8083 46.1003C68.0637 45.8466 68.3679 45.646 68.7029 45.5105C69.0379 45.375 69.3969 45.3072 69.7588 45.3112C70.205 45.3059 70.6458 45.4086 71.0428 45.6102C71.4398 45.8117 71.7811 46.1062 72.037 46.468V45.4343H72.9075V50.1992C72.9276 50.5711 72.8719 50.9431 72.7437 51.2932C72.6155 51.6433 72.4175 51.9643 72.1614 52.2371C71.862 52.5053 71.5116 52.7118 71.1307 52.8445C70.7498 52.9772 70.346 53.0334 69.9429 53.0099C68.9946 53.0131 68.0685 52.726 67.2916 52.1879ZM72.0718 48.0235C72.0649 47.7539 72.0035 47.4884 71.8914 47.2427C71.7792 46.9969 71.6186 46.7758 71.4188 46.5923C71.2191 46.4089 70.9843 46.2668 70.7282 46.1744C70.4722 46.0821 70.2001 46.0413 69.9279 46.0545C69.6668 46.0458 69.4066 46.0898 69.1632 46.1838C68.9197 46.2777 68.6982 46.4198 68.5121 46.6013C68.3259 46.7827 68.179 46.9998 68.0804 47.2392C67.9817 47.4786 67.9334 47.7354 67.9382 47.994V48.0186C67.9382 48.5408 68.1479 49.0416 68.521 49.4109C68.8941 49.7801 69.4002 49.9876 69.9279 49.9876C70.1992 49.9988 70.4701 49.9568 70.7249 49.864C70.9797 49.7712 71.2135 49.6294 71.4128 49.4469C71.612 49.2643 71.7728 49.0446 71.886 48.8003C71.9991 48.556 72.0622 48.292 72.0718 48.0235Z" fill="#231F20"/>
<path id="Vector_21" d="M77.6331 49.4853V46.65H76.9069V45.2028H77.6331V43.6719H79.3442V45.2028H80.7669V46.65H79.3442V49.2047C79.3442 49.5985 79.5134 49.7856 79.8964 49.7856C80.1918 49.7869 80.4828 49.7141 80.742 49.5739V50.9374C80.3329 51.1763 79.8638 51.2958 79.389 51.282C78.3394 51.2771 77.6331 50.8685 77.6331 49.4853Z" fill="#231F20"/>
<path id="Vector_22" d="M81.5677 48.2252C81.5461 47.8243 81.6073 47.4233 81.7475 47.0466C81.8878 46.6699 82.1042 46.3254 82.3835 46.0342C82.6629 45.7431 82.9993 45.5113 83.3721 45.3532C83.745 45.195 84.1466 45.1137 84.5523 45.1143C86.5718 45.1143 87.497 46.6648 87.497 48.3631C87.497 48.496 87.497 48.6535 87.497 48.8061H83.2938C83.3468 49.1519 83.5302 49.465 83.807 49.6824C84.0839 49.8997 84.4337 50.0052 84.7861 49.9776C85.0591 49.9806 85.3298 49.928 85.5814 49.823C85.833 49.718 86.0601 49.5629 86.2485 49.3673L87.2433 50.2238C86.8244 50.7116 86.2655 51.062 85.6409 51.2286C85.0162 51.3952 84.3551 51.3701 83.7452 51.1566C83.1352 50.9431 82.6052 50.5513 82.2252 50.0332C81.8453 49.515 81.6333 48.8948 81.6175 48.2548L81.5677 48.2252ZM85.8257 47.733C85.8231 47.3982 85.6886 47.0776 85.4508 46.8395C85.2129 46.6013 84.8906 46.4645 84.5523 46.4581C83.841 46.4581 83.3783 46.9503 83.244 47.733H85.8257Z" fill="#231F20"/>
<path id="Vector_23" d="M88.4769 48.2252C88.4715 47.8131 88.55 47.4041 88.7076 47.0226C88.8652 46.6411 89.0988 46.2949 89.3945 46.0046C89.6901 45.7144 90.0418 45.4859 90.4285 45.3329C90.8153 45.18 91.2292 45.1056 91.6455 45.1142C92.0968 45.0868 92.5484 45.1611 92.9663 45.3317C93.3842 45.5022 93.7575 45.7645 94.0581 46.0987L93.0085 47.2161C92.8446 47.011 92.636 46.8452 92.3982 46.731C92.1605 46.6167 91.8998 46.5571 91.6356 46.5565C91.4282 46.5626 91.2242 46.6101 91.0358 46.6961C90.8474 46.7821 90.6785 46.9049 90.5392 47.057C90.3999 47.2091 90.293 47.3875 90.225 47.5815C90.1569 47.7754 90.1292 47.981 90.1433 48.1858C90.127 48.3956 90.1543 48.6064 90.2237 48.8052C90.2931 49.0041 90.403 49.1867 90.5466 49.3418C90.6903 49.4969 90.8646 49.6211 91.0588 49.7067C91.2529 49.7924 91.4628 49.8377 91.6754 49.8397C91.9383 49.8336 92.1972 49.7741 92.4359 49.6648C92.6747 49.5556 92.8882 49.399 93.0632 49.2048L94.0581 50.1892C93.7573 50.5495 93.3761 50.8358 92.9445 51.0254C92.5129 51.2151 92.0427 51.3029 91.5709 51.282C91.1647 51.2833 90.7622 51.2052 90.3865 51.0521C90.0109 50.899 89.6695 50.6739 89.382 50.3899C89.0945 50.1058 88.8665 49.7684 88.7112 49.3969C88.5559 49.0254 88.4763 48.6272 88.4769 48.2252Z" fill="#231F20"/>
<path id="Vector_24" d="M95.207 43.0369H96.9231V46.0494C97.1153 45.7572 97.3776 45.5166 97.6866 45.3491C97.9956 45.1816 98.3417 45.0924 98.694 45.0895C99.9873 45.0895 100.743 45.9362 100.743 47.3096V51.1835H99.0322V47.8313C99.0322 47.029 98.6492 46.6155 97.9926 46.6155C97.336 46.6155 96.9231 47.029 96.9231 47.8313V51.1687H95.207V43.0369Z" fill="#231F20"/>
<path id="Vector_25" d="M102.231 45.2028H103.947V46.0495C104.139 45.7573 104.401 45.5167 104.71 45.3492C105.019 45.1817 105.365 45.0925 105.718 45.0896C107.016 45.0896 107.767 45.9363 107.767 47.3096V51.1836H106.036V47.8314C106.036 47.029 105.653 46.6156 104.996 46.6156C104.34 46.6156 103.927 47.029 103.927 47.8314V51.1688H102.211L102.231 45.2028Z" fill="#231F20"/>
<path id="Vector_26" d="M108.966 48.2253C109.012 47.3984 109.376 46.6204 109.984 46.0512C110.592 45.482 111.397 45.1648 112.234 45.1648C113.071 45.1648 113.876 45.482 114.484 46.0512C115.091 46.6204 115.456 47.3984 115.502 48.2253C115.499 48.6445 115.411 49.0588 115.244 49.4438C115.076 49.8289 114.832 50.1769 114.527 50.4673C114.221 50.7577 113.86 50.9846 113.465 51.1347C113.069 51.2848 112.647 51.355 112.224 51.3412C111.801 51.3571 111.379 51.2882 110.984 51.1387C110.588 50.9891 110.228 50.7619 109.923 50.4709C109.619 50.1798 109.377 49.8308 109.213 49.4449C109.048 49.059 108.964 48.6441 108.966 48.2253ZM113.811 48.2253C113.819 48.013 113.785 47.8012 113.709 47.6025C113.634 47.4037 113.518 47.222 113.37 47.0682C113.222 46.9144 113.045 46.7915 112.848 46.707C112.651 46.6225 112.439 46.578 112.224 46.5762C112.011 46.5731 111.799 46.6137 111.602 46.6955C111.405 46.7773 111.227 46.8985 111.08 47.0516C110.933 47.2046 110.819 47.3862 110.747 47.5848C110.674 47.7834 110.643 47.9947 110.657 48.2056C110.648 48.418 110.683 48.6301 110.759 48.8291C110.834 49.0282 110.949 49.2102 111.097 49.3644C111.245 49.5186 111.423 49.6419 111.62 49.7269C111.817 49.812 112.029 49.8571 112.244 49.8595C112.458 49.8627 112.67 49.822 112.867 49.7399C113.064 49.6578 113.242 49.5361 113.39 49.3825C113.537 49.2289 113.65 49.0468 113.723 48.8476C113.795 48.6484 113.825 48.4365 113.811 48.2253Z" fill="#231F20"/>
<path id="Vector_27" d="M116.825 43.0369H118.536V51.1835H116.825V43.0369Z" fill="#231F20"/>
<path id="Vector_28" d="M119.855 48.2253C119.887 47.3887 120.246 46.5973 120.856 46.017C121.466 45.4367 122.279 45.1125 123.125 45.1125C123.971 45.1125 124.784 45.4367 125.394 46.017C126.004 46.5973 126.363 47.3887 126.396 48.2253C126.393 48.6449 126.305 49.0596 126.137 49.445C125.969 49.8304 125.725 50.1786 125.419 50.4691C125.113 50.7596 124.751 50.9864 124.355 51.1362C123.959 51.286 123.536 51.3557 123.113 51.3412C122.69 51.3564 122.268 51.2871 121.873 51.1372C121.478 50.9874 121.118 50.7602 120.814 50.4693C120.509 50.1784 120.268 49.8297 120.103 49.4441C119.938 49.0585 119.854 48.6439 119.855 48.2253ZM124.704 48.2253C124.713 48.0126 124.678 47.8004 124.602 47.6013C124.526 47.4022 124.411 47.2203 124.262 47.0664C124.114 46.9125 123.935 46.7898 123.738 46.7056C123.54 46.6214 123.328 46.5774 123.113 46.5763C122.899 46.5731 122.687 46.6137 122.491 46.6955C122.294 46.7773 122.116 46.8986 121.969 47.0516C121.822 47.2046 121.708 47.3862 121.635 47.5848C121.562 47.7834 121.532 47.9948 121.546 48.2056C121.537 48.4185 121.572 48.6309 121.648 48.8303C121.724 49.0296 121.839 49.2119 121.988 49.3662C122.136 49.5204 122.314 49.6436 122.512 49.7284C122.709 49.8131 122.922 49.8577 123.138 49.8595C123.351 49.8627 123.564 49.822 123.761 49.7399C123.958 49.6578 124.136 49.5361 124.283 49.3825C124.43 49.2289 124.544 49.0468 124.616 48.8476C124.689 48.6484 124.719 48.4365 124.704 48.2253Z" fill="#231F20"/>
<path id="Vector_29" d="M127.669 52.365L128.256 51.0901C128.872 51.4557 129.577 51.6465 130.295 51.6414C131.469 51.6414 132.021 51.0803 132.021 50.0121V49.7217C131.797 50.0345 131.498 50.2879 131.151 50.4596C130.804 50.6312 130.42 50.7159 130.032 50.7062C129.666 50.711 129.304 50.641 128.967 50.5006C128.63 50.3602 128.327 50.1525 128.075 49.8904C127.823 49.6283 127.629 49.3176 127.504 48.9777C127.38 48.6377 127.327 48.276 127.351 47.9151C127.329 47.5546 127.382 47.1935 127.507 46.8542C127.632 46.515 127.827 46.2048 128.078 45.9431C128.33 45.6813 128.633 45.4735 128.969 45.3326C129.305 45.1917 129.667 45.1208 130.032 45.1241C130.405 45.1161 130.774 45.1922 131.113 45.3465C131.452 45.5009 131.75 45.7295 131.987 46.0151V45.2029H133.698V49.83C133.734 50.2536 133.685 50.6801 133.553 51.0848C133.422 51.4896 133.211 51.8645 132.932 52.1878C132.37 52.7441 131.499 52.9902 130.325 52.9902C129.402 52.9951 128.491 52.7807 127.669 52.365ZM132.021 47.9004C131.964 47.555 131.784 47.2412 131.515 47.0147C131.245 46.7883 130.903 46.664 130.549 46.664C130.195 46.664 129.853 46.7883 129.584 47.0147C129.314 47.2412 129.134 47.555 129.077 47.9004C129.074 48.0888 129.11 48.2758 129.183 48.4496C129.257 48.6234 129.366 48.7803 129.504 48.9102C129.642 49.0402 129.806 49.1405 129.985 49.2048C130.164 49.269 130.354 49.2958 130.544 49.2836C130.734 49.295 130.925 49.2677 131.104 49.2033C131.283 49.1389 131.447 49.0387 131.586 48.909C131.724 48.7794 131.835 48.6229 131.909 48.4494C131.984 48.2759 132.022 48.089 132.021 47.9004Z" fill="#231F20"/>
<path id="Vector_30" d="M139.214 45.2029H140.995L138.672 51.3264C138.209 52.5422 137.717 53 136.682 53C136.146 53.0062 135.618 52.8629 135.16 52.5866L135.737 51.3609C135.958 51.4972 136.209 51.5767 136.468 51.5922C136.598 51.6043 136.729 51.5725 136.838 51.5019C136.947 51.4312 137.029 51.326 137.07 51.2033L134.703 45.2029H136.518L137.891 49.2737L139.214 45.2029Z" fill="#231F20"/>
</g>
<defs>
<clipPath id="clip0_1040_4318">
<rect width="141" height="53" fill="white"/>
</clipPath>
</defs>
</svg>
