<svg width="140" height="51" viewBox="0 0 140 51" fill="none" xmlns="http://www.w3.org/2000/svg">
<g id="Ebene_1" clip-path="url(#clip0_807_12406)">
<g id="Group">
<path id="Vector" d="M67.9998 27.9405H73.3487L73.3585 9.72555H73.4326L81.3547 27.9405H88.8718V1.28979H83.4093L83.439 19.3862H83.3698L75.6996 1.28979H67.9998V27.9405Z" fill="#403F38"/>
<path id="Vector_2" d="M91.6574 27.9405L100.271 1.28979H107.689L116.436 27.9405H109.803L108.104 22.2508H99.5943L97.8015 27.9405H91.6525H91.6574ZM103.98 6.79181H103.926L100.997 17.213H106.682L103.98 6.79181Z" fill="#403F38"/>
<path id="Vector_3" d="M119.128 27.9405H125.173V15.8351H125.247L132.3 27.9405H140L130.957 13.6965L139.358 1.28979H132.063L125.247 12.1703H125.173V1.28979H119.128V27.9405Z" fill="#403F38"/>
<path id="Vector_4" d="M0 1.28979H7.22571C14.1403 1.28979 17.3901 4.0408 17.3901 10.0367C17.3901 15.4202 14.0464 18.6256 8.38637 18.6256H6.05024V27.9405H0V1.28979ZM6.05024 13.5829H7.60107C9.68532 13.5829 11.3547 12.7038 11.3547 9.91817C11.3547 7.1326 9.68532 6.32754 7.60107 6.32754H6.05024V13.5829Z" fill="#403F38"/>
<path id="Vector_5" d="M51.9975 0.692139C48.7082 0.692139 45.5423 2.25285 43.3049 4.8952L46.051 11.2121C46.9598 8.80686 49.1132 6.97945 51.5925 6.97945C54.8967 6.97945 57.6131 10.1997 57.6131 13.7211C57.6131 18.1267 54.8918 21.3469 51.5925 21.3469C51.1875 21.3469 50.7825 21.2926 50.3874 21.1987L53.3705 28.0738C59.5443 27.3428 63.8856 21.7173 63.8856 13.9533C63.8856 6.18921 58.1712 0.692139 51.9975 0.692139Z" fill="#403F38"/>
<path id="Vector_6" d="M48.145 21.6481C51.2368 21.6481 53.7606 19.1194 53.7606 16.0029C53.7606 12.8864 51.2368 10.3577 48.145 10.3577C45.0532 10.3577 42.5195 12.8864 42.5195 16.0029C42.5195 19.1194 45.0384 21.6481 48.145 21.6481Z" fill="#80C342"/>
<path id="Vector_7" d="M20.8177 27.9405H26.868V16.5216H34.0048V27.9405H40.055V1.28979H34.0048V11.4838H26.868V1.28979H20.8177V27.9405Z" fill="#403F38"/>
</g>
<g id="Group_2">
<path id="Vector_8" d="M57.8551 36.2133C57.8551 34.4254 57.4254 33.9957 55.9437 33.9216V33.4178L60.374 32.7856V50.4079H57.8551V36.2133Z" fill="#8A8B83"/>
<path id="Vector_9" d="M64.6018 41.9771C64.6018 40.2189 64.1968 39.7892 62.6608 39.7348V39.2311L67.1157 38.426V50.408H64.6018V41.9722V41.9771ZM64.3252 34.8551C64.3252 34.0007 65.0315 33.2944 65.9106 33.2944C66.7897 33.2944 67.5257 33.9711 67.5257 34.8551C67.5257 35.7392 66.77 36.4406 65.8909 36.4406C65.0117 36.4406 64.3301 35.7392 64.3301 34.8551H64.3252Z" fill="#8A8B83"/>
<path id="Vector_10" d="M71.6002 39.7101H69.5604V38.7025H71.6002V37.0134C71.6002 35.0032 72.4794 32.7856 75.502 32.7856C78.7271 32.7856 79.8335 33.9167 80.1101 35.754H77.2899C77.2652 34.8501 76.9392 33.6401 75.6798 33.6401C74.2179 33.6401 74.1191 35.2502 74.1191 36.4355V38.7025H77.4677V39.7101H74.1191V50.4079H71.6052V39.7101H71.6002Z" fill="#8A8B83"/>
<path id="Vector_11" d="M88.289 50.0079C87.81 50.1857 86.4764 50.6845 84.7429 50.6845C80.8905 50.6845 78.5741 48.3435 78.5741 44.1404C78.5741 40.1596 80.4855 38.426 83.8588 38.426C88.1656 38.426 88.5162 41.5475 88.5162 43.2316H81.3449C81.3449 45.7505 82.3771 49.3214 85.9233 49.3214C86.9802 49.3214 87.8643 49.0695 88.289 48.8917V50.003V50.0079ZM85.9974 42.229C85.9974 41.6512 85.948 39.2854 83.7551 39.2854C81.8684 39.2854 81.3399 41.2758 81.3399 42.229H85.9974Z" fill="#8A8B83"/>
<path id="Vector_12" d="M95.816 41.9771C95.816 40.2189 95.416 39.7892 93.875 39.7348V39.2311L98.3299 38.426V50.408H95.816V41.9722V41.9771ZM95.5394 34.8551C95.5394 34.0007 96.2457 33.2944 97.1248 33.2944C98.004 33.2944 98.7349 33.9711 98.7349 34.8551C98.7349 35.7392 97.9793 36.4406 97.1001 36.4406C96.221 36.4406 95.5394 35.7392 95.5394 34.8551Z" fill="#8A8B83"/>
<path id="Vector_13" d="M108.554 40.7422C108.173 40.4903 106.968 39.5322 105.561 39.5322C104.756 39.5322 103.797 39.8334 103.797 40.9151C103.797 43.3055 109.309 43.3549 109.309 47.2073C109.309 49.6719 107.269 50.6794 104.775 50.6794C103.239 50.6794 102.133 50.3781 101.555 50.23V48.2643C102.286 48.768 103.466 49.5731 104.879 49.5731C106.464 49.5731 107.042 48.768 107.042 47.8889C107.042 45.4194 101.53 45.2712 101.53 41.7942C101.53 39.9816 102.765 38.4209 105.733 38.4209C107.018 38.4209 108.124 38.7469 108.554 38.8506V40.7373V40.7422Z" fill="#8A8B83"/>
<path id="Vector_14" d="M115.631 44.5701C115.631 40.367 117.394 38.426 121.069 38.426C124.744 38.426 126.507 40.9449 126.507 44.5701C126.507 48.6744 124.798 50.6845 121.069 50.6845C117.019 50.6845 115.631 48.0916 115.631 44.5701ZM121.069 49.8301C123.538 49.8301 123.741 47.089 123.741 44.5701C123.741 42.2537 123.514 39.2854 121.069 39.2854C118.624 39.2854 118.402 42.3574 118.402 44.5701C118.402 46.6593 118.58 49.8301 121.069 49.8301Z" fill="#8A8B83"/>
<path id="Vector_15" d="M129.628 41.9771C129.628 40.2189 129.199 39.7892 127.613 39.7349V39.2311L132.147 38.426V41.6462H132.197C132.577 40.7671 133.91 38.426 136.4 38.426C138.691 38.426 139.447 40.0361 139.447 41.9722V50.408H136.933V43.8885C136.933 41.8981 136.933 40.1398 135.244 40.1398C133.555 40.1398 132.147 42.4809 132.147 44.2688V50.4129H129.628V41.9771Z" fill="#8A8B83"/>
</g>
</g>
<defs>
<clipPath id="clip0_807_12406">
<rect width="140" height="49.9922" fill="white" transform="translate(0 0.692139)"/>
</clipPath>
</defs>
</svg>
