<svg width="149" height="54" viewBox="0 0 149 54" fill="none" xmlns="http://www.w3.org/2000/svg">
<g id="ReSound GN" clip-path="url(#clip0_1040_4349)">
<g id="Clip path group">
<mask id="mask0_1040_4349" style="mask-type:luminance" maskUnits="userSpaceOnUse" x="-11" y="-10" width="172" height="75">
<g id="a">
<path id="Vector" d="M-10.2217 64.6423H160.002V-9.85163H-10.2217V64.6423Z" fill="white"/>
</g>
</mask>
<g mask="url(#mask0_1040_4349)">
<g id="Group">
<path id="Vector_2" d="M144.529 52.2268H5.25338C3.54401 52.2268 2.15833 50.8371 2.15833 49.1228V5.6681C2.15833 3.95378 3.54401 2.5641 5.25338 2.5641H144.529C146.238 2.5641 147.623 3.95378 147.623 5.6681V49.1228C147.623 50.8371 146.238 52.2268 144.529 52.2268Z" fill="#AA1835"/>
<path id="Vector_3" d="M34.2706 20.9815C35.4379 20.9815 36.2392 21.0638 36.6298 21.4834C37.0156 21.8949 37.2098 22.7883 37.2266 24.2146C35.5733 24.284 32.4261 24.2794 30.8488 24.1149C30.9697 21.5833 31.1433 20.9815 34.2706 20.9815ZM29.4353 21.3592C29.0838 22.181 28.8742 23.5479 28.8742 25.0109C28.8742 27.4165 29.3022 28.861 30.2608 29.6967C31.2436 30.5554 32.834 30.6733 34.406 30.6733C35.916 30.6733 36.8292 30.5452 38.487 30.312L38.6165 30.2947L38.6329 28.6187L38.5518 28.6334C38.5317 28.6369 36.4508 28.9993 34.3156 28.9993C32.8742 28.9993 31.9192 28.7431 31.4756 28.244C30.9105 27.6176 30.8207 26.6942 30.817 25.7826C31.2752 25.7954 33.9172 25.8741 35.3778 25.8741C36.713 25.8741 39.049 25.7022 39.0728 25.7003L39.132 25.6957L39.1357 25.6363C39.1362 25.6262 39.1926 24.6149 39.1926 24.243C39.1926 22.385 38.9411 21.2695 38.3502 20.5116C37.5183 19.4884 35.7529 19.3504 34.1355 19.3504C32.1403 19.3504 30.1898 19.5937 29.4353 21.3592ZM42.9683 16.1356C42.255 16.8296 41.9228 17.9167 41.9228 19.556C41.9228 21.3711 42.3836 22.4389 43.4178 23.0167C44.3629 23.5479 45.7358 23.6157 47.3249 23.6916L47.8933 23.7209C49.4144 23.7976 50.374 23.8607 50.8997 24.1971C51.3738 24.5007 51.541 25.0392 51.541 26.2579C51.541 27.3194 51.3263 27.9083 50.8003 28.2888C50.2743 28.6681 49.3749 28.8382 47.8834 28.8382C45.5882 28.8382 42.2468 28.4176 42.2468 28.4176L42.2363 30.2947C42.2363 30.2947 45.0959 30.6733 47.9066 30.6733C50.2364 30.6733 51.5943 30.3569 52.4463 29.6154C53.2946 28.8784 53.6407 27.7923 53.6407 25.8732C53.6407 24.0664 53.1648 22.9454 52.1405 22.3421C51.2188 21.7989 49.9502 21.7276 48.4796 21.6453L47.0447 21.5549L46.762 21.5374C44.7516 21.4121 43.9992 21.3664 43.9992 19.5772C43.9992 18.5595 44.0965 17.8838 44.593 17.4405C45.1122 16.9768 46.0922 16.7693 47.7704 16.7693C50.0842 16.7693 52.8895 17.1241 52.8895 17.1241L52.8912 15.3402L52.832 15.3329C52.8 15.3292 49.7191 14.959 47.7027 14.959C45.1331 14.959 43.8495 15.2772 42.9683 16.1356ZM58.6937 28.436C58.2972 27.912 58.225 26.8706 58.225 25.0109C58.225 23.153 58.2972 22.1134 58.6937 21.5876C59.0798 21.0748 59.8574 20.9815 61.2506 20.9815C62.6427 20.9815 63.4208 21.0748 63.8078 21.5876C64.2035 22.1134 64.2751 23.153 64.2751 25.0109C64.2751 26.8706 64.2035 27.912 63.8078 28.436C63.4208 28.9488 62.6427 29.0422 61.2506 29.0422C59.8574 29.0422 59.0798 28.9488 58.6937 28.436ZM57.1648 20.4704C56.393 21.3664 56.2375 22.8724 56.2375 25.0109C56.2375 27.1513 56.393 28.6581 57.1648 29.5541C57.9647 30.483 59.3778 30.6733 61.2506 30.6733C63.1235 30.6733 64.5349 30.483 65.3357 29.5541C66.1075 28.6581 66.2624 27.1513 66.2624 25.0109C66.2624 22.8724 66.1075 21.3664 65.3357 20.4704C64.5349 19.5424 63.1235 19.3504 61.2506 19.3504C59.3778 19.3504 57.9647 19.5424 57.1648 20.4704ZM76.6895 19.4867C76.6895 19.4867 76.685 28.5437 76.685 28.6462C76.2839 28.7496 75.1068 29.0201 73.8851 29.0201C71.5704 29.0201 71.2203 28.6608 71.2203 26.28V19.4867H69.3021V26.5524C69.3021 28.2568 69.5528 29.2021 70.1709 29.8109C70.7898 30.4236 71.7491 30.6733 73.4775 30.6733C74.0063 30.6733 74.7603 30.5717 75.0804 30.5287L75.207 30.5123C75.3903 30.4904 75.5964 30.4126 75.9355 30.2691C76.2838 30.12 76.4872 29.9856 76.4952 29.9811C76.592 29.9143 76.6739 29.8595 76.7524 29.8595C76.8217 29.8595 76.8425 29.8595 76.8691 30.0122L76.8719 30.0103C76.8719 30.025 76.9465 30.5151 76.9465 30.5151H78.6104L78.604 19.4867H76.6895ZM85.7763 19.4665L85.5574 19.4875C85.314 19.5086 84.7105 19.802 84.5873 19.8733C84.4233 19.9676 84.0641 20.1431 83.9792 20.1431C83.9091 20.1431 83.8873 20.1431 83.8618 19.9895C83.8625 19.9904 83.7842 19.4867 83.7842 19.4867H82.1505V30.5151H84.0686V21.3408C84.5082 21.2476 85.7955 21.0035 87.0262 21.0035C88.3008 21.0035 88.9014 21.1314 89.237 21.4771C89.5689 21.8191 89.6902 22.427 89.6902 23.7209V30.537H91.6101V23.4483C91.6101 21.7651 91.3512 20.7942 90.7439 20.1997C90.1397 19.6046 89.1486 19.3504 87.4328 19.3504C86.9359 19.3504 86.1839 19.4262 85.7763 19.4665ZM97.0931 28.2568C96.6964 27.7126 96.5433 26.803 96.5433 25.0109C96.5433 23.2187 96.6983 22.3063 97.1013 21.7558C97.4968 21.2166 98.1579 21.0035 99.4562 21.0035C100.422 21.0035 101.6 21.1288 102.346 21.2402V28.6005C101.924 28.7093 100.685 28.9993 99.4562 28.9993C98.1615 28.9993 97.4778 28.7834 97.0931 28.2568ZM102.336 14.9352C102.336 14.9352 102.344 19.5012 102.346 19.6585C101.926 19.5827 100.522 19.3504 98.9812 19.3504C97.2007 19.3504 96.0026 19.898 95.318 21.0209C94.6452 22.1216 94.5558 23.6567 94.5558 25.0109C94.5558 26.3879 94.6442 27.9421 95.3025 29.0422C95.957 30.1393 97.103 30.6733 98.8006 30.6733C99.6395 30.6733 100.207 30.5892 100.546 30.5406L100.76 30.5114C101.012 30.4867 101.592 30.1804 101.628 30.162C101.713 30.1265 101.818 30.0762 101.922 30.0242C102.054 29.9583 102.254 29.8614 102.301 29.8595C102.402 29.8595 102.417 29.874 102.44 30.0122L102.518 30.5151H104.258L104.265 14.9352H102.336ZM21.29 16.7473C22.7375 16.7473 23.5673 16.9393 23.978 17.3718L23.982 17.3764C24.4366 17.8317 24.4743 18.5084 24.4743 19.2836C24.4743 20.0434 24.4366 20.7118 23.982 21.1672C23.5682 21.6032 22.7375 21.7972 21.29 21.7972H16.6162V16.7473H21.29ZM14.5831 14.9352V30.5151H16.6125C16.6125 30.5151 16.6162 23.7181 16.6162 23.5863C16.7414 23.5863 19.7773 23.5854 19.8466 23.5854C19.8868 23.644 24.4907 30.5151 24.4907 30.5151H26.9796L22.3539 23.6376C22.3539 23.6376 22.3315 23.5882 22.3953 23.5882C22.6245 23.5882 23.3594 23.5444 24.3204 23.2051C24.8655 23.0104 25.2521 22.704 25.5815 22.3512C26.2344 21.6243 26.5513 20.6286 26.5513 19.3055C26.5513 17.68 26.2061 16.6066 25.4654 15.9271C24.7247 15.2516 23.5568 14.9352 21.7872 14.9352H14.5831ZM24.2865 17.0728C24.2865 17.0728 24.2879 17.0737 24.2884 17.0747L24.2853 17.07C24.2857 17.071 24.286 17.0719 24.2865 17.0728ZM15.832 39.802H14.7923C14.6521 39.802 14.5383 39.6879 14.5383 39.5473V36.954C14.5383 36.8133 14.6521 36.6992 14.7923 36.6992H15.832C15.9722 36.6992 16.086 36.8133 16.086 36.954V39.5473C16.086 39.6879 15.9722 39.802 15.832 39.802ZM21.0428 39.802H19.8337C19.6868 39.802 19.5678 39.6825 19.5678 39.5352V36.9661C19.5678 36.8187 19.6868 36.6992 19.8337 36.6992H21.0428C21.1897 36.6992 21.3087 36.8187 21.3087 36.9661V39.5352C21.3087 39.6825 21.1897 39.802 21.0428 39.802ZM26.2534 39.802H24.8753C24.7217 39.802 24.5971 39.6771 24.5971 39.5231V36.9781C24.5971 36.8241 24.7217 36.6992 24.8753 36.6992H26.2534C26.407 36.6992 26.5315 36.8241 26.5315 36.9781V39.5231C26.5315 39.6771 26.407 39.802 26.2534 39.802ZM31.4643 39.802H29.9166C29.7564 39.802 29.6265 39.6717 29.6265 39.511V36.9902C29.6265 36.8296 29.7564 36.6992 29.9166 36.6992H31.4643C31.6244 36.6992 31.7544 36.8296 31.7544 36.9902V39.511C31.7544 39.6717 31.6244 39.802 31.4643 39.802ZM36.6749 39.802H34.9582C34.7912 39.802 34.6559 39.6662 34.6559 39.4989V37.0023C34.6559 36.835 34.7912 36.6992 34.9582 36.6992H36.6749C36.8419 36.6992 36.9771 36.835 36.9771 37.0023V39.4989C36.9771 39.6662 36.8419 39.802 36.6749 39.802ZM41.8856 39.802H39.9995C39.8261 39.802 39.6853 39.6608 39.6853 39.4866V37.0146C39.6853 36.8404 39.8261 36.6992 39.9995 36.6992H41.8856C42.0592 36.6992 42.2 36.8404 42.2 37.0146V39.4866C42.2 39.6608 42.0592 39.802 41.8856 39.802ZM47.0964 39.802H45.0411C44.8608 39.802 44.7148 39.6554 44.7148 39.4746V37.0267C44.7148 36.8459 44.8608 36.6992 45.0411 36.6992H47.0964C47.2767 36.6992 47.4227 36.8459 47.4227 37.0267V39.4746C47.4227 39.6554 47.2767 39.802 47.0964 39.802ZM52.307 39.802H50.0826C49.8955 39.802 49.7441 39.6499 49.7441 39.4625V37.0388C49.7441 36.8513 49.8955 36.6992 50.0826 36.6992H52.307C52.4941 36.6992 52.6456 36.8513 52.6456 37.0388V39.4625C52.6456 39.6499 52.4941 39.802 52.307 39.802ZM57.5179 39.802H55.124C54.9304 39.802 54.7734 39.6445 54.7734 39.4504V37.0509C54.7734 36.8567 54.9304 36.6992 55.124 36.6992H57.5179C57.7114 36.6992 57.8685 36.8567 57.8685 37.0509V39.4504C57.8685 39.6445 57.7114 39.802 57.5179 39.802ZM62.7285 39.802H60.1655C59.9652 39.802 59.8029 39.6391 59.8029 39.4383V37.0631C59.8029 36.8622 59.9652 36.6992 60.1655 36.6992H62.7285C62.9289 36.6992 63.0912 36.8622 63.0912 37.0631V39.4383C63.0912 39.6391 62.9289 39.802 62.7285 39.802ZM67.9393 39.802H65.2191C65.0121 39.802 64.8442 39.6336 64.8442 39.426V37.0752C64.8442 36.8676 65.0121 36.6992 65.2191 36.6992H67.9393C68.1463 36.6992 68.3141 36.8676 68.3141 37.0752V39.426C68.3141 39.6336 68.1463 39.802 67.9393 39.802ZM122.178 39.802H70.7739C70.3956 39.802 70.0888 39.4944 70.0888 39.1149V37.3864C70.0888 37.0069 70.3956 36.6992 70.7739 36.6992H122.178C122.557 36.6992 122.864 37.0069 122.864 37.3864V39.1149C122.864 39.4944 122.557 39.802 122.178 39.802ZM134.379 25.7386C134.146 25.7386 133.918 25.6477 133.747 25.4762L126.619 18.3279C126.514 18.2221 126.333 18.2971 126.333 18.4469V24.8124C126.333 25.3061 125.948 25.7295 125.456 25.7385C124.954 25.7477 124.545 25.3429 124.545 24.8421V15.9033C124.545 15.5888 124.695 15.2863 124.961 15.119C125.132 15.0101 125.336 14.963 125.538 14.9854C125.739 15.0079 125.928 15.0985 126.071 15.2425L133.199 22.3906C133.304 22.4966 133.485 22.4216 133.485 22.2718V15.9063C133.485 15.4126 133.87 14.9891 134.362 14.9802C134.863 14.9709 135.273 15.3758 135.273 15.8765V24.8146C135.273 25.138 135.113 25.448 134.836 25.6128C134.698 25.6952 134.54 25.7386 134.379 25.7386ZM121.862 19.4628H119.215C118.721 19.4628 118.297 19.85 118.289 20.345C118.281 20.8467 118.684 21.2558 119.183 21.2558H120.747C120.871 21.2558 120.971 21.3562 120.971 21.4801V23.7214C120.971 23.8453 120.871 23.9455 120.747 23.9455V23.9456H117.464C115.384 23.9456 113.708 22.2383 113.825 20.1557C113.93 18.2725 115.491 16.773 117.395 16.773H121.833C122.326 16.773 122.751 16.3858 122.759 15.8907C122.767 15.3891 122.363 14.98 121.865 14.98H117.476C114.599 14.98 112.171 17.2203 112.037 20.1027C111.893 23.1849 114.352 25.7386 117.395 25.7386H121.862C122.357 25.7386 122.759 25.336 122.759 24.8395V20.362C122.759 19.8653 122.357 19.4628 121.862 19.4628Z" fill="white"/>
</g>
</g>
</g>
</g>
<defs>
<clipPath id="clip0_1040_4349">
<rect width="149" height="54" fill="white"/>
</clipPath>
</defs>
</svg>
