<svg width="70" height="82" viewBox="0 0 70 82" fill="none" xmlns="http://www.w3.org/2000/svg">
<g id="Signia" clip-path="url(#clip0_1040_4310)">
<g id="Group">
<path id="Vector" d="M25.2404 62.1797C21.4567 62.1797 18.3871 65.2577 18.3871 69.0614C18.3871 72.865 21.4643 75.9507 25.1341 75.9507C26.988 75.9507 28.424 75.2099 29.3737 73.9496V75.1182C29.3737 77.4172 27.5198 79.2808 25.2328 79.2808H24.6934V82.0076H25.2328C29.0166 82.0076 32.0862 78.9219 32.0862 75.1258V69.0767C32.0862 65.273 29.0166 62.195 25.2328 62.195M25.2328 72.9109C23.1282 72.9109 21.4187 71.1924 21.4187 69.0767C21.4187 66.961 23.1282 65.2425 25.2328 65.2425C27.4439 65.2425 29.047 67.0756 29.047 69.0767C29.047 71.1924 27.3375 72.9109 25.2328 72.9109ZM41.1506 62.195C44.3493 62.195 46.9402 64.7995 46.9402 68.015V75.6605H43.9162V68.015C43.9162 66.4798 42.6626 65.2425 41.143 65.2425C39.6234 65.2425 38.3697 66.4798 38.3697 68.015V75.6605H35.3457V68.015C35.3457 64.7995 37.9366 62.195 41.1354 62.195M63.1315 62.195C59.3477 62.195 56.2781 65.273 56.2781 69.0767C56.2781 72.8803 59.3553 75.966 63.0251 75.966C64.879 75.966 66.315 75.2251 67.2648 73.9649V75.6681H69.9772V69.0843C69.9772 65.2807 66.9152 62.2026 63.1315 62.2026M63.1315 72.9185C61.0268 72.9185 59.3173 71.2 59.3173 69.0843C59.3173 66.9686 61.0268 65.2501 63.1315 65.2501C65.0386 65.2501 66.9456 66.77 66.9456 69.0843C66.9456 71.2 65.2361 72.9185 63.1315 72.9185ZM50.4809 62.5157H53.5428V75.6758H50.4809V62.5157Z" fill="#575756"/>
<path id="Vector_2" d="M12.5974 62.5005H15.6594V75.6605H12.5974V62.5005Z" fill="#575756"/>
<path id="Vector_3" d="M3.51786 67.1978V70.9404C3.51786 71.8569 2.77326 72.5978 1.8615 72.5978H0V75.6529H1.8615C4.4524 75.6529 6.55704 73.5373 6.55704 70.9328V67.1902C6.56464 66.2813 7.30164 65.5404 8.2058 65.5404H10.0673V62.4929H8.2058C5.62249 62.4929 3.52545 64.5933 3.51786 67.1902" fill="#575756"/>
</g>
<g id="Group_2">
<path id="Vector_4" d="M34.9963 0C20.2334 0 8.25903 12.0296 8.25903 26.8776C8.25903 41.7256 20.2258 53.7552 34.9963 53.7552C49.7667 53.7552 61.7335 41.7256 61.7335 26.8776C61.7335 12.0296 49.7667 0 34.9963 0Z" fill="#E30613"/>
<path id="Vector_5" d="M46.6212 18.7433H42.3207C40.2313 18.7433 38.5294 20.4466 38.5142 22.547V31.1701C38.5142 37.1811 33.6515 42.0541 27.6795 42.0541H23.379V35.1265H27.6795C29.7841 35.1265 31.5012 33.408 31.5012 31.2923V22.5394C31.524 16.5513 36.3563 11.6936 42.3207 11.6936H46.6212V18.7357V18.7433Z" fill="white"/>
</g>
</g>
<defs>
<clipPath id="clip0_1040_4310">
<rect width="70" height="82" fill="white"/>
</clipPath>
</defs>
</svg>
