<svg width="140" height="88" viewBox="0 0 140 88" fill="none" xmlns="http://www.w3.org/2000/svg">
<g id="Layer_1" clip-path="url(#clip0_807_12394)">
<path id="Vector" d="M79.9829 81.2744C79.9829 81.2744 46.9884 63.2194 9.47358 78.6248L27.8349 47.2947L9.48024 30.9905H35.6841L49.0456 8.78121L53.7258 30.9905H139.334V30.5245L57.1478 26.8163L50.5901 0L32.9811 26.9894H0L22.0362 48.2667C22.0362 48.2667 0.0865472 87.6723 0 87.6922C38.1407 64.7106 79.9829 81.7205 79.9829 81.7205V81.2811V81.2744Z" fill="#FDB913"/>
<g id="Group">
<g id="Group_2">
<path id="Vector_2" d="M45.617 43.5996C44.7582 42.3946 43.2336 41.8221 41.6824 41.8221C39.845 41.8221 38.0009 42.6476 38.0009 44.7048C38.0009 49.2119 48.6595 46.6421 48.6595 54.6377C48.6595 59.4578 44.8514 61.8078 40.4442 61.8078C37.6547 61.8078 34.9251 60.949 33.0876 58.7587L36.1035 55.8427C37.0888 57.334 38.7665 58.1862 40.544 58.1862C42.3216 58.1862 44.4786 57.1676 44.4786 55.1104C44.4786 50.1905 33.82 53.02 33.82 44.9911C33.82 40.3575 37.9409 38.2004 42.1019 38.2004C44.452 38.2004 46.7954 38.8662 48.5396 40.5172L45.6237 43.593L45.617 43.5996Z" fill="#003262"/>
<path id="Vector_3" d="M49.6382 49.2453V46.0098H52.7805V41.6025H56.5886V46.0098H60.7761V49.2453H56.5886V55.9095C56.5886 57.434 57.0346 58.3794 58.7123 58.3794C59.3781 58.3794 60.2968 58.2529 60.7761 57.9067V61.1156C59.9839 61.4951 58.6524 61.6216 57.7603 61.6216C53.7325 61.6216 52.7805 59.8107 52.7805 56.229V49.252H49.6382V49.2453Z" fill="#003262"/>
<path id="Vector_4" d="M73.2256 59.1448H73.1324C72.0539 60.8558 70.2763 61.6214 68.2458 61.6214C65.423 61.6214 62.6935 60.0702 62.6935 57.0543C62.6935 52.1078 68.4655 51.755 72.2736 51.755H73.2256V51.3422C73.2256 49.4715 71.7676 48.4862 69.7304 48.4862C68.146 48.4862 66.688 49.1186 65.6694 50.0707L63.6721 48.0734C65.3565 46.3624 67.7332 45.6301 70.1432 45.6301C76.6475 45.6301 76.6475 50.3303 76.6475 52.4807V61.2352H73.219V59.1381L73.2256 59.1448ZM73.0059 54.418H72.2137C70.1232 54.418 66.5016 54.5778 66.5016 56.7681C66.5016 58.1661 67.9329 58.7653 69.1645 58.7653C71.7676 58.7653 73.0059 57.4005 73.0059 55.2768V54.418Z" fill="#003262"/>
<path id="Vector_5" d="M79.9962 46.0097H83.8043V48.4197H83.8709C84.6964 46.6754 86.3741 45.6235 88.378 45.6235C88.8507 45.6235 89.2967 45.7167 89.7428 45.8499V49.5315C89.1103 49.3717 88.5045 49.2452 87.9053 49.2452C84.3236 49.2452 83.8109 52.261 83.8109 53.0866V61.242H80.0029V46.0163L79.9962 46.0097Z" fill="#003262"/>
<path id="Vector_6" d="M91.9331 37.2551H95.7412V52.321L101.613 46.0097H106.5L99.9687 52.9268L106.912 61.242H101.873L95.8144 53.4661H95.7478V61.242H91.9398V37.2618L91.9331 37.2551Z" fill="#003262"/>
<path id="Vector_7" d="M110.201 54.9574C110.454 57.2143 112.172 58.5724 114.295 58.5724C116.2 58.5724 117.438 57.687 118.39 56.5086L121.113 58.5724C119.335 60.7627 117.085 61.6216 114.675 61.6216C110.075 61.6216 106.393 58.4193 106.393 53.6326C106.393 48.8459 110.075 45.637 114.675 45.637C118.922 45.637 121.812 48.6195 121.812 53.9189V54.9641H110.201V54.9574ZM118.004 52.1014C117.97 49.8844 116.512 48.4864 114.129 48.4864C111.879 48.4864 110.481 49.9111 110.194 52.1014H117.997H118.004Z" fill="#003262"/>
<path id="Vector_8" d="M122.391 46.0098H126.579L130.833 56.5752H130.893L134.701 46.0098H138.669L131.465 63.9383C130.353 66.7944 129.022 68.2857 125.66 68.2857C124.675 68.2857 123.689 68.1592 122.744 67.9062L123.217 64.4843C123.822 64.7106 124.481 64.8637 125.154 64.8637C127.025 64.8637 127.531 64.7639 128.17 63.1794L128.902 61.3686L122.398 46.0164L122.391 46.0098Z" fill="#003262"/>
</g>
<path id="Vector_9" d="M138.196 59.3845C139.174 59.3845 140 60.1568 140 61.1887C140 62.2206 139.174 62.9929 138.196 62.9929C137.217 62.9929 136.392 62.214 136.392 61.1887C136.392 60.1635 137.21 59.3845 138.196 59.3845ZM138.196 62.7266C139.021 62.7266 139.674 62.0608 139.674 61.1887C139.674 60.3166 139.015 59.6442 138.196 59.6442C137.377 59.6442 136.711 60.3166 136.711 61.1887C136.711 62.0608 137.364 62.7266 138.196 62.7266ZM137.51 60.1302H138.302C138.802 60.1302 139.035 60.3299 139.035 60.7293C139.035 61.1288 138.795 61.2686 138.475 61.3085L139.081 62.2406H138.735L138.162 61.3352H137.816V62.2406H137.497V60.1302H137.51ZM137.83 61.0689H138.162C138.449 61.0689 138.722 61.0555 138.722 60.716C138.722 60.4231 138.469 60.3898 138.249 60.3898H137.83V61.0689Z" fill="#003262"/>
</g>
</g>
<defs>
<clipPath id="clip0_807_12394">
<rect width="140" height="87.6922" fill="white"/>
</clipPath>
</defs>
</svg>
